<svg xmlns="http://www.w3.org/2000/svg" xmlns:xlink="http://www.w3.org/1999/xlink" width="500" zoomAndPan="magnify" viewBox="0 0 375 374.999991" height="500" preserveAspectRatio="xMidYMid meet" version="1.0"><defs><g/><clipPath id="b426b67a3c"><path d="M 132.261719 184.742188 L 241.761719 184.742188 L 241.761719 202.476562 L 132.261719 202.476562 Z M 132.261719 184.742188 " clip-rule="nonzero"/></clipPath><clipPath id="be34cc2bc2"><path d="M 146 129.726562 L 228 129.726562 L 228 181 L 146 181 Z M 146 129.726562 " clip-rule="nonzero"/></clipPath><clipPath id="b2be37f751"><path d="M 156.5 138.613281 L 173 138.613281 L 173 155 L 156.5 155 Z M 156.5 138.613281 " clip-rule="nonzero"/></clipPath><clipPath id="08f7f90588"><path d="M 162.246094 154.160156 L 174.371094 154.160156 L 174.371094 166.332031 L 162.246094 166.332031 Z M 162.246094 154.160156 " clip-rule="nonzero"/></clipPath><clipPath id="01c0a2b9f5"><path d="M 171 145.109375 L 183.492188 145.109375 L 183.492188 157.820312 L 171 157.820312 Z M 171 145.109375 " clip-rule="nonzero"/></clipPath></defs><rect x="-37.5" width="450" fill="#ffffff" y="-37.499999" height="449.999989" fill-opacity="1"/><rect x="-37.5" width="450" fill="#ffffff" y="-37.499999" height="449.999989" fill-opacity="1"/><g clip-path="url(#b426b67a3c)"><path fill="#38b6ff" d="M 202.832031 198.214844 L 171.226562 198.214844 C 171.007812 198.214844 170.867188 197.984375 170.96875 197.792969 L 173.402344 193.109375 C 173.449219 193.011719 173.550781 192.953125 173.65625 192.953125 L 200.398438 192.953125 C 200.507812 192.953125 200.605469 193.011719 200.65625 193.109375 L 203.085938 197.792969 C 203.1875 197.984375 203.046875 198.214844 202.832031 198.214844 Z M 241.097656 198.746094 L 228.007812 185.65625 C 227.5625 185.210938 226.957031 184.957031 226.324219 184.957031 L 147.730469 184.957031 C 147.101562 184.957031 146.492188 185.210938 146.046875 185.65625 L 132.957031 198.746094 C 132.511719 199.191406 132.261719 199.796875 132.261719 200.429688 C 132.261719 201.746094 133.328125 202.8125 134.644531 202.8125 L 239.414062 202.8125 C 240.726562 202.8125 241.796875 201.746094 241.796875 200.429688 C 241.796875 199.796875 241.542969 199.191406 241.097656 198.746094 " fill-opacity="1" fill-rule="nonzero"/></g><g clip-path="url(#be34cc2bc2)"><path fill="#38b6ff" d="M 223.394531 129.753906 L 150.664062 129.753906 C 148.558594 129.753906 146.835938 131.476562 146.835938 133.578125 L 146.835938 176.761719 C 146.835938 178.863281 148.558594 180.585938 150.664062 180.585938 L 223.394531 180.585938 C 225.496094 180.585938 227.21875 178.863281 227.21875 176.761719 L 227.21875 133.578125 C 227.21875 131.476562 225.496094 129.753906 223.394531 129.753906 Z M 222.792969 134.179688 L 222.792969 176.15625 L 151.265625 176.15625 L 151.265625 134.179688 L 222.792969 134.179688 " fill-opacity="1" fill-rule="nonzero"/></g><path fill="#ff66c4" d="M 207.390625 113.535156 C 192.242188 112.566406 179.707031 125.105469 180.671875 140.25 C 181.472656 152.769531 191.585938 162.882812 204.105469 163.683594 C 219.253906 164.652344 231.789062 152.113281 230.824219 136.96875 C 230.023438 124.449219 219.910156 114.335938 207.390625 113.535156 Z M 217.125 151.078125 C 218.113281 147.683594 218.703125 143.777344 218.78125 139.574219 L 228.917969 139.574219 C 228.695312 144.960938 226.628906 149.878906 223.332031 153.710938 C 221.820312 152.648438 219.703125 151.753906 217.125 151.078125 Z M 188.164062 153.710938 C 184.867188 149.878906 182.800781 144.960938 182.578125 139.574219 L 192.714844 139.574219 C 192.792969 143.777344 193.382812 147.683594 194.371094 151.078125 C 191.789062 151.753906 189.675781 152.648438 188.164062 153.710938 Z M 194.367188 126.160156 C 193.378906 129.550781 192.792969 133.449219 192.714844 137.644531 L 182.578125 137.644531 C 182.800781 132.28125 184.847656 127.386719 188.117188 123.5625 C 189.65625 124.605469 191.785156 125.488281 194.367188 126.160156 Z M 204.78125 137.644531 L 194.644531 137.644531 C 194.730469 133.644531 195.324219 129.867188 196.296875 126.601562 C 198.90625 127.128906 201.804688 127.429688 204.78125 127.484375 Z M 204.78125 139.574219 L 204.78125 149.734375 C 201.796875 149.789062 198.902344 150.09375 196.300781 150.628906 C 195.324219 147.359375 194.730469 143.578125 194.644531 139.574219 Z M 206.714844 139.574219 L 216.847656 139.574219 C 216.765625 143.578125 216.171875 147.359375 215.195312 150.628906 C 212.59375 150.09375 209.695312 149.789062 206.714844 149.734375 Z M 206.714844 137.644531 L 206.714844 127.484375 C 209.691406 127.429688 212.585938 127.128906 215.199219 126.601562 C 216.171875 129.867188 216.765625 133.644531 216.847656 137.644531 Z M 206.714844 125.550781 L 206.714844 115.511719 C 209.886719 116.117188 212.726562 119.640625 214.589844 124.753906 C 212.160156 125.230469 209.476562 125.5 206.714844 125.550781 Z M 204.78125 115.511719 L 204.78125 125.550781 C 202.019531 125.5 199.332031 125.230469 196.90625 124.753906 C 198.765625 119.640625 201.605469 116.113281 204.78125 115.511719 Z M 204.78125 151.667969 L 204.78125 161.707031 C 201.609375 161.105469 198.769531 157.582031 196.910156 152.472656 C 199.328125 151.992188 202.015625 151.71875 204.78125 151.667969 Z M 206.714844 161.707031 L 206.714844 151.667969 C 209.480469 151.71875 212.164062 151.992188 214.585938 152.472656 C 212.722656 157.582031 209.886719 161.105469 206.714844 161.707031 Z M 218.78125 137.644531 C 218.703125 133.449219 218.117188 129.550781 217.128906 126.160156 C 219.710938 125.488281 221.839844 124.605469 223.378906 123.5625 C 226.648438 127.386719 228.695312 132.28125 228.917969 137.644531 Z M 222.042969 122.121094 C 220.6875 122.980469 218.796875 123.734375 216.539062 124.3125 C 215.328125 120.886719 213.679688 118.09375 211.742188 116.203125 C 215.683594 117.261719 219.21875 119.332031 222.042969 122.121094 Z M 194.957031 124.3125 C 192.699219 123.734375 190.808594 122.980469 189.453125 122.121094 C 192.277344 119.332031 195.8125 117.261719 199.753906 116.203125 C 197.816406 118.09375 196.167969 120.886719 194.957031 124.3125 Z M 189.503906 155.144531 C 190.828125 154.273438 192.707031 153.507812 194.960938 152.921875 C 196.175781 156.34375 197.816406 159.125 199.753906 161.015625 C 195.832031 159.964844 192.316406 157.910156 189.503906 155.144531 Z M 216.535156 152.921875 C 218.789062 153.507812 220.667969 154.273438 221.992188 155.144531 C 219.175781 157.910156 215.664062 159.964844 211.742188 161.015625 C 213.675781 159.125 215.320312 156.34375 216.535156 152.921875 Z M 216.535156 152.921875 " fill-opacity="1" fill-rule="nonzero"/><g clip-path="url(#b2be37f751)"><path fill="#231f20" d="M 161.007812 146.542969 C 161.007812 144.703125 162.480469 143.210938 164.296875 143.210938 C 166.117188 143.210938 167.589844 144.703125 167.589844 146.542969 C 167.589844 148.382812 166.117188 149.875 164.296875 149.875 C 162.480469 149.875 161.007812 148.382812 161.007812 146.542969 Z M 163.011719 154.4375 L 165.582031 154.4375 L 165.964844 152.417969 C 166.40625 152.289062 166.828125 152.113281 167.222656 151.890625 L 168.902344 153.046875 L 170.722656 151.207031 L 169.582031 149.503906 C 169.800781 149.105469 169.976562 148.679688 170.101562 148.230469 L 172.097656 147.84375 L 172.097656 145.242188 L 170.101562 144.855469 C 169.976562 144.40625 169.800781 143.980469 169.582031 143.582031 L 170.722656 141.878906 L 168.902344 140.039062 L 167.222656 141.195312 C 166.828125 140.972656 166.40625 140.796875 165.964844 140.667969 L 165.582031 138.648438 L 163.011719 138.648438 L 162.632812 140.667969 C 162.191406 140.796875 161.769531 140.972656 161.375 141.195312 L 159.691406 140.039062 L 157.875 141.878906 L 159.015625 143.582031 C 158.796875 143.980469 158.621094 144.40625 158.496094 144.855469 L 156.5 145.242188 L 156.5 147.84375 L 158.496094 148.230469 C 158.621094 148.679688 158.796875 149.105469 159.015625 149.503906 L 157.875 151.207031 L 159.691406 153.046875 L 161.375 151.890625 C 161.769531 152.113281 162.191406 152.289062 162.632812 152.417969 L 163.011719 154.4375 " fill-opacity="1" fill-rule="nonzero"/></g><g clip-path="url(#08f7f90588)"><path fill="#231f20" d="M 170.710938 160.703125 C 170.503906 162.070312 169.246094 163.007812 167.894531 162.796875 C 166.546875 162.585938 165.621094 161.308594 165.828125 159.945312 C 166.035156 158.578125 167.296875 157.640625 168.644531 157.851562 C 169.996094 158.0625 170.917969 159.339844 170.710938 160.703125 Z M 172.523438 158.734375 L 173.5625 157.605469 L 172.417969 156.03125 L 171.042969 156.691406 C 170.777344 156.484375 170.484375 156.304688 170.167969 156.15625 L 170.113281 154.613281 L 168.207031 154.316406 L 167.695312 155.773438 C 167.351562 155.816406 167.019531 155.898438 166.703125 156.019531 L 165.585938 154.964844 L 164.03125 156.121094 L 164.683594 157.515625 C 164.476562 157.789062 164.300781 158.082031 164.15625 158.402344 L 162.632812 158.457031 L 162.339844 160.390625 L 163.777344 160.90625 C 163.820312 161.253906 163.902344 161.589844 164.019531 161.910156 L 162.980469 163.042969 L 164.121094 164.617188 L 165.5 163.957031 C 165.765625 164.164062 166.058594 164.34375 166.371094 164.492188 L 166.429688 166.035156 L 168.335938 166.332031 L 168.847656 164.875 C 169.1875 164.832031 169.523438 164.75 169.839844 164.628906 L 170.957031 165.679688 L 172.511719 164.523438 L 171.855469 163.128906 C 172.0625 162.859375 172.242188 162.5625 172.386719 162.246094 L 173.910156 162.191406 L 174.203125 160.257812 L 172.765625 159.742188 C 172.722656 159.394531 172.640625 159.058594 172.523438 158.734375 " fill-opacity="1" fill-rule="nonzero"/></g><g clip-path="url(#01c0a2b9f5)"><path fill="#231f20" d="M 179.792969 152.199219 C 179.410156 153.601562 177.980469 154.421875 176.597656 154.039062 C 175.214844 153.652344 174.402344 152.207031 174.785156 150.804688 C 175.164062 149.40625 176.59375 148.582031 177.976562 148.96875 C 179.359375 149.351562 180.171875 150.800781 179.792969 152.199219 Z M 182.050781 151.449219 C 182.046875 151.082031 182.003906 150.71875 181.917969 150.367188 L 183.140625 149.316406 L 182.136719 147.53125 L 180.617188 148.050781 C 180.363281 147.800781 180.082031 147.574219 179.769531 147.382812 L 179.898438 145.765625 L 177.941406 145.222656 L 177.234375 146.675781 C 176.871094 146.679688 176.511719 146.726562 176.167969 146.8125 L 175.128906 145.578125 L 173.363281 146.59375 L 173.878906 148.128906 C 173.628906 148.386719 173.410156 148.675781 173.21875 148.988281 L 171.621094 148.859375 L 171.082031 150.839844 L 172.523438 151.558594 C 172.527344 151.925781 172.570312 152.285156 172.65625 152.636719 L 171.433594 153.691406 L 172.4375 155.476562 L 173.957031 154.953125 C 174.210938 155.203125 174.492188 155.429688 174.804688 155.621094 L 174.675781 157.238281 L 176.632812 157.785156 L 177.339844 156.328125 C 177.703125 156.324219 178.0625 156.277344 178.40625 156.191406 L 179.445312 157.429688 L 181.210938 156.414062 L 180.695312 154.875 C 180.945312 154.617188 181.164062 154.332031 181.355469 154.015625 L 182.953125 154.144531 L 183.492188 152.164062 L 182.050781 151.449219 " fill-opacity="1" fill-rule="nonzero"/></g><g fill="#ff66c4" fill-opacity="1"><g transform="translate(45.2359, 230.721738)"><g><path d="M 7.234375 0 L 0.65625 0 L 0.65625 -1.734375 L 2.421875 -2.546875 L 2.421875 -11.90625 L 0.65625 -12.71875 L 0.65625 -14.46875 L 7.234375 -14.46875 L 7.234375 -12.71875 L 5.46875 -11.90625 L 5.46875 -2.546875 L 7.234375 -1.734375 Z M 7.234375 0 "/></g></g></g><g fill="#ff66c4" fill-opacity="1"><g transform="translate(53.120959, 230.721738)"><g><path d="M 14.65625 0 L 10.75 0 L 4.46875 -10.9375 L 4.375 -10.9375 C 4.5 -9.007812 4.5625 -7.632812 4.5625 -6.8125 L 4.5625 0 L 1.828125 0 L 1.828125 -14.46875 L 5.6875 -14.46875 L 11.96875 -3.625 L 12.046875 -3.625 C 11.941406 -5.507812 11.890625 -6.84375 11.890625 -7.625 L 11.890625 -14.46875 L 14.65625 -14.46875 Z M 14.65625 0 "/></g></g></g><g fill="#ff66c4" fill-opacity="1"><g transform="translate(69.593503, 230.721738)"><g><path d="M 14.65625 0 L 10.75 0 L 4.46875 -10.9375 L 4.375 -10.9375 C 4.5 -9.007812 4.5625 -7.632812 4.5625 -6.8125 L 4.5625 0 L 1.828125 0 L 1.828125 -14.46875 L 5.6875 -14.46875 L 11.96875 -3.625 L 12.046875 -3.625 C 11.941406 -5.507812 11.890625 -6.84375 11.890625 -7.625 L 11.890625 -14.46875 L 14.65625 -14.46875 Z M 14.65625 0 "/></g></g></g><g fill="#ff66c4" fill-opacity="1"><g transform="translate(86.066048, 230.721738)"><g/></g></g><g fill="#38b6ff" fill-opacity="1"><g transform="translate(91.337459, 230.721738)"><g><path d="M 4.890625 -7.65625 L 5.890625 -7.65625 C 6.835938 -7.65625 7.546875 -7.84375 8.015625 -8.21875 C 8.484375 -8.59375 8.71875 -9.132812 8.71875 -9.84375 C 8.71875 -10.5625 8.519531 -11.09375 8.125 -11.4375 C 7.738281 -11.78125 7.125 -11.953125 6.28125 -11.953125 L 4.890625 -11.953125 Z M 11.8125 -9.953125 C 11.8125 -8.398438 11.320312 -7.207031 10.34375 -6.375 C 9.375 -5.550781 7.992188 -5.140625 6.203125 -5.140625 L 4.890625 -5.140625 L 4.890625 0 L 1.828125 0 L 1.828125 -14.46875 L 6.4375 -14.46875 C 8.195312 -14.46875 9.53125 -14.085938 10.4375 -13.328125 C 11.351562 -12.578125 11.8125 -11.453125 11.8125 -9.953125 Z M 11.8125 -9.953125 "/></g></g></g><g fill="#38b6ff" fill-opacity="1"><g transform="translate(104.060393, 230.721738)"><g><path d="M 4.890625 -8.046875 L 5.875 -8.046875 C 6.84375 -8.046875 7.554688 -8.207031 8.015625 -8.53125 C 8.484375 -8.851562 8.71875 -9.359375 8.71875 -10.046875 C 8.71875 -10.734375 8.476562 -11.222656 8 -11.515625 C 7.53125 -11.804688 6.800781 -11.953125 5.8125 -11.953125 L 4.890625 -11.953125 Z M 4.890625 -5.546875 L 4.890625 0 L 1.828125 0 L 1.828125 -14.46875 L 6.03125 -14.46875 C 8 -14.46875 9.453125 -14.109375 10.390625 -13.390625 C 11.335938 -12.671875 11.8125 -11.585938 11.8125 -10.140625 C 11.8125 -9.285156 11.578125 -8.523438 11.109375 -7.859375 C 10.640625 -7.203125 9.976562 -6.679688 9.125 -6.296875 L 13.375 0 L 9.96875 0 L 6.515625 -5.546875 Z M 4.890625 -5.546875 "/></g></g></g><g fill="#38b6ff" fill-opacity="1"><g transform="translate(117.436293, 230.721738)"><g><path d="M 14.953125 -7.25 C 14.953125 -4.851562 14.359375 -3.007812 13.171875 -1.71875 C 11.984375 -0.4375 10.28125 0.203125 8.0625 0.203125 C 5.84375 0.203125 4.140625 -0.4375 2.953125 -1.71875 C 1.765625 -3.007812 1.171875 -4.859375 1.171875 -7.265625 C 1.171875 -9.679688 1.765625 -11.519531 2.953125 -12.78125 C 4.148438 -14.050781 5.859375 -14.6875 8.078125 -14.6875 C 10.304688 -14.6875 12.007812 -14.046875 13.1875 -12.765625 C 14.363281 -11.492188 14.953125 -9.65625 14.953125 -7.25 Z M 4.390625 -7.25 C 4.390625 -5.632812 4.695312 -4.414062 5.3125 -3.59375 C 5.925781 -2.78125 6.84375 -2.375 8.0625 -2.375 C 10.507812 -2.375 11.734375 -4 11.734375 -7.25 C 11.734375 -10.507812 10.515625 -12.140625 8.078125 -12.140625 C 6.859375 -12.140625 5.9375 -11.726562 5.3125 -10.90625 C 4.695312 -10.082031 4.390625 -8.863281 4.390625 -7.25 Z M 4.390625 -7.25 "/></g></g></g><g fill="#38b6ff" fill-opacity="1"><g transform="translate(133.562562, 230.721738)"><g><path d="M 0.3125 4.25 C -0.382812 4.25 -0.988281 4.175781 -1.5 4.03125 L -1.5 1.484375 C -0.976562 1.617188 -0.5 1.6875 -0.0625 1.6875 C 0.613281 1.6875 1.097656 1.472656 1.390625 1.046875 C 1.679688 0.628906 1.828125 -0.0195312 1.828125 -0.90625 L 1.828125 -14.46875 L 4.890625 -14.46875 L 4.890625 -0.9375 C 4.890625 0.757812 4.503906 2.046875 3.734375 2.921875 C 2.960938 3.804688 1.820312 4.25 0.3125 4.25 Z M 0.3125 4.25 "/></g></g></g><g fill="#38b6ff" fill-opacity="1"><g transform="translate(140.270299, 230.721738)"><g><path d="M 10.15625 0 L 1.828125 0 L 1.828125 -14.46875 L 10.15625 -14.46875 L 10.15625 -11.953125 L 4.890625 -11.953125 L 4.890625 -8.78125 L 9.78125 -8.78125 L 9.78125 -6.265625 L 4.890625 -6.265625 L 4.890625 -2.53125 L 10.15625 -2.53125 Z M 10.15625 0 "/></g></g></g><g fill="#38b6ff" fill-opacity="1"><g transform="translate(151.618054, 230.721738)"><g><path d="M 7.96875 -12.125 C 6.8125 -12.125 5.914062 -11.6875 5.28125 -10.8125 C 4.644531 -9.945312 4.328125 -8.738281 4.328125 -7.1875 C 4.328125 -3.96875 5.539062 -2.359375 7.96875 -2.359375 C 8.976562 -2.359375 10.207031 -2.609375 11.65625 -3.109375 L 11.65625 -0.546875 C 10.46875 -0.046875 9.140625 0.203125 7.671875 0.203125 C 5.566406 0.203125 3.957031 -0.429688 2.84375 -1.703125 C 1.726562 -2.984375 1.171875 -4.820312 1.171875 -7.21875 C 1.171875 -8.71875 1.441406 -10.03125 1.984375 -11.15625 C 2.535156 -12.289062 3.320312 -13.160156 4.34375 -13.765625 C 5.375 -14.367188 6.582031 -14.671875 7.96875 -14.671875 C 9.375 -14.671875 10.785156 -14.332031 12.203125 -13.65625 L 11.21875 -11.15625 C 10.675781 -11.414062 10.128906 -11.640625 9.578125 -11.828125 C 9.023438 -12.023438 8.488281 -12.125 7.96875 -12.125 Z M 7.96875 -12.125 "/></g></g></g><g fill="#38b6ff" fill-opacity="1"><g transform="translate(164.528968, 230.721738)"><g><path d="M 7.40625 0 L 4.328125 0 L 4.328125 -11.90625 L 0.40625 -11.90625 L 0.40625 -14.46875 L 11.328125 -14.46875 L 11.328125 -11.90625 L 7.40625 -11.90625 Z M 7.40625 0 "/></g></g></g><g fill="#38b6ff" fill-opacity="1"><g transform="translate(176.26256, 230.721738)"><g/></g></g><g fill="#38b6ff" fill-opacity="1"><g transform="translate(181.525858, 230.721738)"><g><path d="M 7.953125 0 L 4.46875 -11.34375 L 4.375 -11.34375 C 4.5 -9.039062 4.5625 -7.503906 4.5625 -6.734375 L 4.5625 0 L 1.828125 0 L 1.828125 -14.46875 L 6 -14.46875 L 9.421875 -3.40625 L 9.484375 -3.40625 L 13.109375 -14.46875 L 17.28125 -14.46875 L 17.28125 0 L 14.421875 0 L 14.421875 -6.84375 C 14.421875 -7.164062 14.425781 -7.535156 14.4375 -7.953125 C 14.445312 -8.378906 14.492188 -9.503906 14.578125 -11.328125 L 14.484375 -11.328125 L 10.75 0 Z M 7.953125 0 "/></g></g></g><g fill="#38b6ff" fill-opacity="1"><g transform="translate(200.630052, 230.721738)"><g><path d="M 10.671875 0 L 9.625 -3.4375 L 4.359375 -3.4375 L 3.3125 0 L 0 0 L 5.109375 -14.53125 L 8.859375 -14.53125 L 13.984375 0 Z M 8.890625 -6.015625 C 7.921875 -9.140625 7.375 -10.90625 7.25 -11.3125 C 7.132812 -11.71875 7.050781 -12.039062 7 -12.28125 C 6.78125 -11.4375 6.15625 -9.347656 5.125 -6.015625 Z M 8.890625 -6.015625 "/></g></g></g><g fill="#38b6ff" fill-opacity="1"><g transform="translate(214.609455, 230.721738)"><g><path d="M 14.65625 0 L 10.75 0 L 4.46875 -10.9375 L 4.375 -10.9375 C 4.5 -9.007812 4.5625 -7.632812 4.5625 -6.8125 L 4.5625 0 L 1.828125 0 L 1.828125 -14.46875 L 5.6875 -14.46875 L 11.96875 -3.625 L 12.046875 -3.625 C 11.941406 -5.507812 11.890625 -6.84375 11.890625 -7.625 L 11.890625 -14.46875 L 14.65625 -14.46875 Z M 14.65625 0 "/></g></g></g><g fill="#38b6ff" fill-opacity="1"><g transform="translate(231.082, 230.721738)"><g><path d="M 10.671875 0 L 9.625 -3.4375 L 4.359375 -3.4375 L 3.3125 0 L 0 0 L 5.109375 -14.53125 L 8.859375 -14.53125 L 13.984375 0 Z M 8.890625 -6.015625 C 7.921875 -9.140625 7.375 -10.90625 7.25 -11.3125 C 7.132812 -11.71875 7.050781 -12.039062 7 -12.28125 C 6.78125 -11.4375 6.15625 -9.347656 5.125 -6.015625 Z M 8.890625 -6.015625 "/></g></g></g><g fill="#38b6ff" fill-opacity="1"><g transform="translate(245.061403, 230.721738)"><g><path d="M 7.3125 -8.125 L 13.046875 -8.125 L 13.046875 -0.625 C 12.117188 -0.320312 11.242188 -0.109375 10.421875 0.015625 C 9.597656 0.140625 8.757812 0.203125 7.90625 0.203125 C 5.71875 0.203125 4.046875 -0.4375 2.890625 -1.71875 C 1.742188 -3.007812 1.171875 -4.851562 1.171875 -7.25 C 1.171875 -9.582031 1.835938 -11.398438 3.171875 -12.703125 C 4.515625 -14.015625 6.367188 -14.671875 8.734375 -14.671875 C 10.222656 -14.671875 11.65625 -14.375 13.03125 -13.78125 L 12.015625 -11.328125 C 10.953125 -11.859375 9.851562 -12.125 8.71875 -12.125 C 7.394531 -12.125 6.332031 -11.675781 5.53125 -10.78125 C 4.726562 -9.894531 4.328125 -8.695312 4.328125 -7.1875 C 4.328125 -5.625 4.648438 -4.425781 5.296875 -3.59375 C 5.941406 -2.769531 6.878906 -2.359375 8.109375 -2.359375 C 8.742188 -2.359375 9.390625 -2.421875 10.046875 -2.546875 L 10.046875 -5.578125 L 7.3125 -5.578125 Z M 7.3125 -8.125 "/></g></g></g><g fill="#38b6ff" fill-opacity="1"><g transform="translate(259.733346, 230.721738)"><g><path d="M 10.15625 0 L 1.828125 0 L 1.828125 -14.46875 L 10.15625 -14.46875 L 10.15625 -11.953125 L 4.890625 -11.953125 L 4.890625 -8.78125 L 9.78125 -8.78125 L 9.78125 -6.265625 L 4.890625 -6.265625 L 4.890625 -2.53125 L 10.15625 -2.53125 Z M 10.15625 0 "/></g></g></g><g fill="#38b6ff" fill-opacity="1"><g transform="translate(271.081101, 230.721738)"><g><path d="M 7.953125 0 L 4.46875 -11.34375 L 4.375 -11.34375 C 4.5 -9.039062 4.5625 -7.503906 4.5625 -6.734375 L 4.5625 0 L 1.828125 0 L 1.828125 -14.46875 L 6 -14.46875 L 9.421875 -3.40625 L 9.484375 -3.40625 L 13.109375 -14.46875 L 17.28125 -14.46875 L 17.28125 0 L 14.421875 0 L 14.421875 -6.84375 C 14.421875 -7.164062 14.425781 -7.535156 14.4375 -7.953125 C 14.445312 -8.378906 14.492188 -9.503906 14.578125 -11.328125 L 14.484375 -11.328125 L 10.75 0 Z M 7.953125 0 "/></g></g></g><g fill="#38b6ff" fill-opacity="1"><g transform="translate(290.185295, 230.721738)"><g><path d="M 10.15625 0 L 1.828125 0 L 1.828125 -14.46875 L 10.15625 -14.46875 L 10.15625 -11.953125 L 4.890625 -11.953125 L 4.890625 -8.78125 L 9.78125 -8.78125 L 9.78125 -6.265625 L 4.890625 -6.265625 L 4.890625 -2.53125 L 10.15625 -2.53125 Z M 10.15625 0 "/></g></g></g><g fill="#38b6ff" fill-opacity="1"><g transform="translate(301.53305, 230.721738)"><g><path d="M 14.65625 0 L 10.75 0 L 4.46875 -10.9375 L 4.375 -10.9375 C 4.5 -9.007812 4.5625 -7.632812 4.5625 -6.8125 L 4.5625 0 L 1.828125 0 L 1.828125 -14.46875 L 5.6875 -14.46875 L 11.96875 -3.625 L 12.046875 -3.625 C 11.941406 -5.507812 11.890625 -6.84375 11.890625 -7.625 L 11.890625 -14.46875 L 14.65625 -14.46875 Z M 14.65625 0 "/></g></g></g><g fill="#38b6ff" fill-opacity="1"><g transform="translate(318.005583, 230.721738)"><g><path d="M 7.40625 0 L 4.328125 0 L 4.328125 -11.90625 L 0.40625 -11.90625 L 0.40625 -14.46875 L 11.328125 -14.46875 L 11.328125 -11.90625 L 7.40625 -11.90625 Z M 7.40625 0 "/></g></g></g><g fill="#ff66c4" fill-opacity="1"><g transform="translate(120.79262, 242.1371)"><g><path d="M 2.953125 0 L 0.265625 0 L 0.265625 -0.703125 L 0.984375 -1.046875 L 0.984375 -4.859375 L 0.265625 -5.1875 L 0.265625 -5.90625 L 2.953125 -5.90625 L 2.953125 -5.1875 L 2.234375 -4.859375 L 2.234375 -1.046875 L 2.953125 -0.703125 Z M 2.953125 0 "/></g></g><g transform="translate(124.010663, 242.1371)"><g><path d="M 5.984375 0 L 4.390625 0 L 1.8125 -4.46875 L 1.78125 -4.46875 C 1.832031 -3.675781 1.859375 -3.113281 1.859375 -2.78125 L 1.859375 0 L 0.75 0 L 0.75 -5.90625 L 2.328125 -5.90625 L 4.890625 -1.484375 L 4.90625 -1.484375 C 4.863281 -2.242188 4.84375 -2.785156 4.84375 -3.109375 L 4.84375 -5.90625 L 5.984375 -5.90625 Z M 5.984375 0 "/></g></g><g transform="translate(130.733425, 242.1371)"><g><path d="M 5.984375 0 L 4.390625 0 L 1.8125 -4.46875 L 1.78125 -4.46875 C 1.832031 -3.675781 1.859375 -3.113281 1.859375 -2.78125 L 1.859375 0 L 0.75 0 L 0.75 -5.90625 L 2.328125 -5.90625 L 4.890625 -1.484375 L 4.90625 -1.484375 C 4.863281 -2.242188 4.84375 -2.785156 4.84375 -3.109375 L 4.84375 -5.90625 L 5.984375 -5.90625 Z M 5.984375 0 "/></g></g><g transform="translate(137.456187, 242.1371)"><g><path d="M 6.09375 -2.953125 C 6.09375 -1.984375 5.847656 -1.234375 5.359375 -0.703125 C 4.878906 -0.179688 4.191406 0.078125 3.296875 0.078125 C 2.390625 0.078125 1.691406 -0.179688 1.203125 -0.703125 C 0.722656 -1.234375 0.484375 -1.988281 0.484375 -2.96875 C 0.484375 -3.945312 0.722656 -4.695312 1.203125 -5.21875 C 1.691406 -5.738281 2.390625 -6 3.296875 -6 C 4.203125 -6 4.894531 -5.734375 5.375 -5.203125 C 5.851562 -4.679688 6.09375 -3.929688 6.09375 -2.953125 Z M 1.796875 -2.953125 C 1.796875 -2.296875 1.921875 -1.800781 2.171875 -1.46875 C 2.421875 -1.132812 2.796875 -0.96875 3.296875 -0.96875 C 4.285156 -0.96875 4.78125 -1.628906 4.78125 -2.953125 C 4.78125 -4.285156 4.285156 -4.953125 3.296875 -4.953125 C 2.796875 -4.953125 2.421875 -4.785156 2.171875 -4.453125 C 1.921875 -4.117188 1.796875 -3.617188 1.796875 -2.953125 Z M 1.796875 -2.953125 "/></g></g><g transform="translate(144.03763, 242.1371)"><g><path d="M 4.109375 -5.90625 L 5.375 -5.90625 L 3.359375 0 L 2 0 L 0 -5.90625 L 1.265625 -5.90625 L 2.375 -2.390625 C 2.4375 -2.179688 2.5 -1.9375 2.5625 -1.65625 C 2.625 -1.382812 2.664062 -1.195312 2.6875 -1.09375 C 2.71875 -1.34375 2.816406 -1.773438 2.984375 -2.390625 Z M 4.109375 -5.90625 "/></g></g><g transform="translate(149.411802, 242.1371)"><g><path d="M 4.359375 0 L 3.921875 -1.40625 L 1.78125 -1.40625 L 1.34375 0 L 0 0 L 2.078125 -5.921875 L 3.609375 -5.921875 L 5.703125 0 Z M 3.625 -2.453125 C 3.226562 -3.722656 3.003906 -4.441406 2.953125 -4.609375 C 2.910156 -4.773438 2.878906 -4.910156 2.859375 -5.015625 C 2.765625 -4.660156 2.507812 -3.804688 2.09375 -2.453125 Z M 3.625 -2.453125 "/></g></g><g transform="translate(155.117065, 242.1371)"><g><path d="M 3.015625 0 L 1.765625 0 L 1.765625 -4.859375 L 0.171875 -4.859375 L 0.171875 -5.90625 L 4.625 -5.90625 L 4.625 -4.859375 L 3.015625 -4.859375 Z M 3.015625 0 "/></g></g><g transform="translate(159.905771, 242.1371)"><g><path d="M 4.140625 0 L 0.75 0 L 0.75 -5.90625 L 4.140625 -5.90625 L 4.140625 -4.875 L 2 -4.875 L 2 -3.578125 L 3.984375 -3.578125 L 3.984375 -2.5625 L 2 -2.5625 L 2 -1.03125 L 4.140625 -1.03125 Z M 4.140625 0 "/></g></g></g><g fill="#38b6ff" fill-opacity="1"><g transform="translate(164.539699, 242.1371)"><g/></g><g transform="translate(166.687753, 242.1371)"><g><path d="M 3.234375 0 L 1.8125 -4.625 L 1.78125 -4.625 C 1.832031 -3.6875 1.859375 -3.0625 1.859375 -2.75 L 1.859375 0 L 0.75 0 L 0.75 -5.90625 L 2.453125 -5.90625 L 3.84375 -1.390625 L 3.859375 -1.390625 L 5.34375 -5.90625 L 7.046875 -5.90625 L 7.046875 0 L 5.890625 0 L 5.890625 -2.796875 C 5.890625 -2.921875 5.890625 -3.066406 5.890625 -3.234375 C 5.890625 -3.410156 5.90625 -3.875 5.9375 -4.625 L 5.90625 -4.625 L 4.390625 0 Z M 3.234375 0 "/></g></g><g transform="translate(174.484541, 242.1371)"><g><path d="M 4.359375 0 L 3.921875 -1.40625 L 1.78125 -1.40625 L 1.34375 0 L 0 0 L 2.078125 -5.921875 L 3.609375 -5.921875 L 5.703125 0 Z M 3.625 -2.453125 C 3.226562 -3.722656 3.003906 -4.441406 2.953125 -4.609375 C 2.910156 -4.773438 2.878906 -4.910156 2.859375 -5.015625 C 2.765625 -4.660156 2.507812 -3.804688 2.09375 -2.453125 Z M 3.625 -2.453125 "/></g></g><g transform="translate(180.189804, 242.1371)"><g><path d="M 5.984375 0 L 4.390625 0 L 1.8125 -4.46875 L 1.78125 -4.46875 C 1.832031 -3.675781 1.859375 -3.113281 1.859375 -2.78125 L 1.859375 0 L 0.75 0 L 0.75 -5.90625 L 2.328125 -5.90625 L 4.890625 -1.484375 L 4.90625 -1.484375 C 4.863281 -2.242188 4.84375 -2.785156 4.84375 -3.109375 L 4.84375 -5.90625 L 5.984375 -5.90625 Z M 5.984375 0 "/></g></g><g transform="translate(186.912566, 242.1371)"><g><path d="M 4.359375 0 L 3.921875 -1.40625 L 1.78125 -1.40625 L 1.34375 0 L 0 0 L 2.078125 -5.921875 L 3.609375 -5.921875 L 5.703125 0 Z M 3.625 -2.453125 C 3.226562 -3.722656 3.003906 -4.441406 2.953125 -4.609375 C 2.910156 -4.773438 2.878906 -4.910156 2.859375 -5.015625 C 2.765625 -4.660156 2.507812 -3.804688 2.09375 -2.453125 Z M 3.625 -2.453125 "/></g></g><g transform="translate(192.617829, 242.1371)"><g><path d="M 2.984375 -3.3125 L 5.328125 -3.3125 L 5.328125 -0.25 C 4.941406 -0.125 4.582031 -0.0390625 4.25 0 C 3.914062 0.0507812 3.570312 0.078125 3.21875 0.078125 C 2.332031 0.078125 1.65625 -0.179688 1.1875 -0.703125 C 0.71875 -1.222656 0.484375 -1.972656 0.484375 -2.953125 C 0.484375 -3.910156 0.753906 -4.65625 1.296875 -5.1875 C 1.835938 -5.71875 2.59375 -5.984375 3.5625 -5.984375 C 4.164062 -5.984375 4.75 -5.863281 5.3125 -5.625 L 4.90625 -4.625 C 4.46875 -4.832031 4.019531 -4.9375 3.5625 -4.9375 C 3.019531 -4.9375 2.582031 -4.753906 2.25 -4.390625 C 1.925781 -4.035156 1.765625 -3.550781 1.765625 -2.9375 C 1.765625 -2.289062 1.894531 -1.796875 2.15625 -1.453125 C 2.425781 -1.117188 2.8125 -0.953125 3.3125 -0.953125 C 3.570312 -0.953125 3.832031 -0.984375 4.09375 -1.046875 L 4.09375 -2.265625 L 2.984375 -2.265625 Z M 2.984375 -3.3125 "/></g></g><g transform="translate(198.605731, 242.1371)"><g><path d="M 4.140625 0 L 0.75 0 L 0.75 -5.90625 L 4.140625 -5.90625 L 4.140625 -4.875 L 2 -4.875 L 2 -3.578125 L 3.984375 -3.578125 L 3.984375 -2.5625 L 2 -2.5625 L 2 -1.03125 L 4.140625 -1.03125 Z M 4.140625 0 "/></g></g><g transform="translate(203.236967, 242.1371)"><g><path d="M 0.46875 -0.578125 C 0.46875 -0.804688 0.523438 -0.976562 0.640625 -1.09375 C 0.765625 -1.207031 0.945312 -1.265625 1.1875 -1.265625 C 1.40625 -1.265625 1.578125 -1.203125 1.703125 -1.078125 C 1.828125 -0.960938 1.890625 -0.796875 1.890625 -0.578125 C 1.890625 -0.367188 1.828125 -0.203125 1.703125 -0.078125 C 1.578125 0.046875 1.40625 0.109375 1.1875 0.109375 C 0.957031 0.109375 0.78125 0.0507812 0.65625 -0.0625 C 0.53125 -0.1875 0.46875 -0.359375 0.46875 -0.578125 Z M 0.46875 -0.578125 "/></g></g><g transform="translate(205.594981, 242.1371)"><g/></g><g transform="translate(207.743034, 242.1371)"><g><path d="M 4.21875 -1.640625 C 4.21875 -1.109375 4.023438 -0.6875 3.640625 -0.375 C 3.265625 -0.0703125 2.734375 0.078125 2.046875 0.078125 C 1.421875 0.078125 0.863281 -0.0390625 0.375 -0.28125 L 0.375 -1.4375 C 0.78125 -1.257812 1.117188 -1.132812 1.390625 -1.0625 C 1.660156 -0.988281 1.910156 -0.953125 2.140625 -0.953125 C 2.421875 -0.953125 2.632812 -1.003906 2.78125 -1.109375 C 2.925781 -1.210938 3 -1.367188 3 -1.578125 C 3 -1.691406 2.96875 -1.789062 2.90625 -1.875 C 2.84375 -1.96875 2.742188 -2.054688 2.609375 -2.140625 C 2.484375 -2.222656 2.234375 -2.359375 1.859375 -2.546875 C 1.492188 -2.710938 1.21875 -2.875 1.03125 -3.03125 C 0.851562 -3.1875 0.710938 -3.367188 0.609375 -3.578125 C 0.503906 -3.785156 0.453125 -4.03125 0.453125 -4.3125 C 0.453125 -4.832031 0.628906 -5.238281 0.984375 -5.53125 C 1.335938 -5.832031 1.828125 -5.984375 2.453125 -5.984375 C 2.753906 -5.984375 3.039062 -5.945312 3.3125 -5.875 C 3.59375 -5.800781 3.890625 -5.695312 4.203125 -5.5625 L 3.796875 -4.59375 C 3.484375 -4.726562 3.222656 -4.816406 3.015625 -4.859375 C 2.804688 -4.910156 2.601562 -4.9375 2.40625 -4.9375 C 2.164062 -4.9375 1.984375 -4.878906 1.859375 -4.765625 C 1.734375 -4.660156 1.671875 -4.519531 1.671875 -4.34375 C 1.671875 -4.238281 1.695312 -4.144531 1.75 -4.0625 C 1.800781 -3.976562 1.878906 -3.894531 1.984375 -3.8125 C 2.097656 -3.738281 2.363281 -3.601562 2.78125 -3.40625 C 3.332031 -3.144531 3.707031 -2.878906 3.90625 -2.609375 C 4.113281 -2.347656 4.21875 -2.023438 4.21875 -1.640625 Z M 4.21875 -1.640625 "/></g></g><g transform="translate(212.297554, 242.1371)"><g><path d="M 5.546875 -5.90625 L 5.546875 -2.078125 C 5.546875 -1.640625 5.445312 -1.253906 5.25 -0.921875 C 5.050781 -0.597656 4.769531 -0.347656 4.40625 -0.171875 C 4.039062 -0.00390625 3.601562 0.078125 3.09375 0.078125 C 2.34375 0.078125 1.753906 -0.113281 1.328125 -0.5 C 0.910156 -0.882812 0.703125 -1.414062 0.703125 -2.09375 L 0.703125 -5.90625 L 1.953125 -5.90625 L 1.953125 -2.28125 C 1.953125 -1.832031 2.039062 -1.5 2.21875 -1.28125 C 2.40625 -1.070312 2.707031 -0.96875 3.125 -0.96875 C 3.539062 -0.96875 3.835938 -1.070312 4.015625 -1.28125 C 4.203125 -1.5 4.296875 -1.835938 4.296875 -2.296875 L 4.296875 -5.90625 Z M 5.546875 -5.90625 "/></g></g><g transform="translate(218.547906, 242.1371)"><g><path d="M 3.25 -4.9375 C 2.78125 -4.9375 2.414062 -4.757812 2.15625 -4.40625 C 1.894531 -4.050781 1.765625 -3.5625 1.765625 -2.9375 C 1.765625 -1.613281 2.257812 -0.953125 3.25 -0.953125 C 3.664062 -0.953125 4.164062 -1.054688 4.75 -1.265625 L 4.75 -0.21875 C 4.269531 -0.0195312 3.726562 0.078125 3.125 0.078125 C 2.269531 0.078125 1.613281 -0.179688 1.15625 -0.703125 C 0.707031 -1.222656 0.484375 -1.96875 0.484375 -2.9375 C 0.484375 -3.550781 0.59375 -4.085938 0.8125 -4.546875 C 1.039062 -5.015625 1.363281 -5.367188 1.78125 -5.609375 C 2.195312 -5.859375 2.6875 -5.984375 3.25 -5.984375 C 3.820312 -5.984375 4.394531 -5.84375 4.96875 -5.5625 L 4.578125 -4.546875 C 4.347656 -4.648438 4.125 -4.738281 3.90625 -4.8125 C 3.6875 -4.894531 3.46875 -4.9375 3.25 -4.9375 Z M 3.25 -4.9375 "/></g></g><g transform="translate(223.817098, 242.1371)"><g><path d="M 3.25 -4.9375 C 2.78125 -4.9375 2.414062 -4.757812 2.15625 -4.40625 C 1.894531 -4.050781 1.765625 -3.5625 1.765625 -2.9375 C 1.765625 -1.613281 2.257812 -0.953125 3.25 -0.953125 C 3.664062 -0.953125 4.164062 -1.054688 4.75 -1.265625 L 4.75 -0.21875 C 4.269531 -0.0195312 3.726562 0.078125 3.125 0.078125 C 2.269531 0.078125 1.613281 -0.179688 1.15625 -0.703125 C 0.707031 -1.222656 0.484375 -1.96875 0.484375 -2.9375 C 0.484375 -3.550781 0.59375 -4.085938 0.8125 -4.546875 C 1.039062 -5.015625 1.363281 -5.367188 1.78125 -5.609375 C 2.195312 -5.859375 2.6875 -5.984375 3.25 -5.984375 C 3.820312 -5.984375 4.394531 -5.84375 4.96875 -5.5625 L 4.578125 -4.546875 C 4.347656 -4.648438 4.125 -4.738281 3.90625 -4.8125 C 3.6875 -4.894531 3.46875 -4.9375 3.25 -4.9375 Z M 3.25 -4.9375 "/></g></g><g transform="translate(229.08629, 242.1371)"><g><path d="M 4.140625 0 L 0.75 0 L 0.75 -5.90625 L 4.140625 -5.90625 L 4.140625 -4.875 L 2 -4.875 L 2 -3.578125 L 3.984375 -3.578125 L 3.984375 -2.5625 L 2 -2.5625 L 2 -1.03125 L 4.140625 -1.03125 Z M 4.140625 0 "/></g></g><g transform="translate(233.717526, 242.1371)"><g><path d="M 4.140625 0 L 0.75 0 L 0.75 -5.90625 L 4.140625 -5.90625 L 4.140625 -4.875 L 2 -4.875 L 2 -3.578125 L 3.984375 -3.578125 L 3.984375 -2.5625 L 2 -2.5625 L 2 -1.03125 L 4.140625 -1.03125 Z M 4.140625 0 "/></g></g><g transform="translate(238.348762, 242.1371)"><g><path d="M 5.640625 -3 C 5.640625 -2.03125 5.363281 -1.285156 4.8125 -0.765625 C 4.257812 -0.253906 3.457031 0 2.40625 0 L 0.75 0 L 0.75 -5.90625 L 2.59375 -5.90625 C 3.5625 -5.90625 4.3125 -5.648438 4.84375 -5.140625 C 5.375 -4.628906 5.640625 -3.914062 5.640625 -3 Z M 4.34375 -2.96875 C 4.34375 -4.238281 3.78125 -4.875 2.65625 -4.875 L 2 -4.875 L 2 -1.03125 L 2.53125 -1.03125 C 3.738281 -1.03125 4.34375 -1.675781 4.34375 -2.96875 Z M 4.34375 -2.96875 "/></g></g><g transform="translate(244.469907, 242.1371)"><g><path d="M 0.46875 -0.578125 C 0.46875 -0.804688 0.523438 -0.976562 0.640625 -1.09375 C 0.765625 -1.207031 0.945312 -1.265625 1.1875 -1.265625 C 1.40625 -1.265625 1.578125 -1.203125 1.703125 -1.078125 C 1.828125 -0.960938 1.890625 -0.796875 1.890625 -0.578125 C 1.890625 -0.367188 1.828125 -0.203125 1.703125 -0.078125 C 1.578125 0.046875 1.40625 0.109375 1.1875 0.109375 C 0.957031 0.109375 0.78125 0.0507812 0.65625 -0.0625 C 0.53125 -0.1875 0.46875 -0.359375 0.46875 -0.578125 Z M 0.46875 -0.578125 "/></g></g></g></svg>